<?xml version="1.0" encoding="utf-8"?>
<!-- Generator: Adobe Illustrator 16.0.0, SVG Export Plug-In . SVG Version: 6.00 Build 0)  -->
<!DOCTYPE svg PUBLIC "-//W3C//DTD SVG 1.1//EN" "http://www.w3.org/Graphics/SVG/1.1/DTD/svg11.dtd">
<svg version="1.1" id="Layer_4" xmlns="http://www.w3.org/2000/svg" xmlns:xlink="http://www.w3.org/1999/xlink" x="0px" y="0px"
	 width="999.875px" height="999.875px" viewBox="0 0 999.875 999.875" enable-background="new 0 0 999.875 999.875"
	 xml:space="preserve">
<g>
	<g>
		<linearGradient id="SVGID_1_" gradientUnits="userSpaceOnUse" x1="800.3799" y1="92.1807" x2="418.38" y2="942.1806">
			<stop  offset="0" style="stop-color:#E1B400"/>
			<stop  offset="1" style="stop-color:#E17614"/>
		</linearGradient>
		<path fill="url(#SVGID_1_)" d="M410.599,590.27c-2.082-2.081-3.171-4.944-3.005-7.879l0,0
			c7.736-133.874,24.768-232.321,49.771-307.402l0,0c24.971-75.053,58.14-126.795,97.541-166.158l0,0
			c40.564-40.578,96.417-57.996,153.186-53.636l0,0c56.813,4.337,114.859,30.256,161.098,76.483l0,0l-14.535,14.537
			c-42.837-42.85-96.422-66.58-148.091-70.504l0,0c-51.715-3.906-101.19,11.798-137.094,47.682l0,0
			c-37.062,37.103-68.359,85.506-92.584,158.135l0,0c-23.509,70.54-40.132,163.899-48.077,290.896l0,0
			c126.998-7.945,220.357-24.566,290.898-48.075l0,0c72.627-24.227,121.029-55.523,158.129-92.588l0,0
			c35.873-35.888,51.496-85.446,47.506-137.26l0,0c-4.016-51.763-27.84-105.453-70.688-148.285l0,0l14.535-14.537
			c46.229,46.238,72.232,104.367,76.664,161.268l0,0c4.455,56.851-12.861,112.804-53.451,153.38l0,0
			c-39.363,39.402-91.106,72.57-166.158,97.542l0,0c-75.08,25.004-173.529,42.035-307.404,49.771l0,0
			c-2.931,0.168-5.796-0.922-7.877-3.003l0,0L410.599,590.27L410.599,590.27z"/>
	</g>
	<linearGradient id="SVGID_2_" gradientUnits="userSpaceOnUse" x1="858.1816" y1="138.9453" x2="858.1816" y2="138.9453">
		<stop  offset="0" style="stop-color:#E1B400"/>
		<stop  offset="1" style="stop-color:#E17614"/>
	</linearGradient>
	<path fill="url(#SVGID_2_)" stroke="#009F18" d="M858.181,138.945"/>
	<linearGradient id="SVGID_3_" gradientUnits="userSpaceOnUse" x1="426.1396" y1="570.9883" x2="426.1396" y2="570.9883">
		<stop  offset="0" style="stop-color:#E1B400"/>
		<stop  offset="1" style="stop-color:#E17614"/>
	</linearGradient>
	<path fill="url(#SVGID_3_)" stroke="#009F18" d="M426.139,570.988"/>
	<g>
		<linearGradient id="SVGID_4_" gradientUnits="userSpaceOnUse" x1="904.3057" y1="138.8862" x2="522.3069" y2="988.8837">
			<stop  offset="0" style="stop-color:#E1B400"/>
			<stop  offset="1" style="stop-color:#E17614"/>
		</linearGradient>
		<path fill="url(#SVGID_4_)" d="M783.225,269.241c1.811-5.216,7.509-7.979,12.727-6.168l0,0c24.072,8.313,45.53,4.511,63.827-3.535
			l0,0c18.202-8.046,32.681-20.538,40.598-28.479l0,0c3.974-3.973,6.312-6.784,6.708-7.269l0,0c0.051-0.062,0.051-0.062,0.051-0.062
			l0,0l-0.001,0.002c3.45-4.314,9.744-5.014,14.056-1.564l0,0c4.314,3.451,5.011,9.743,1.564,14.057l0,0
			c-0.189,0.233-3.057,3.798-8.234,8.98l0,0c-9.055,9.028-25.117,23.053-46.636,32.62l0,0c-21.424,9.563-48.87,14.474-78.491,4.145
			l0,0c-1.477-0.513-2.754-1.335-3.789-2.37l0,0C782.979,276.973,781.926,272.984,783.225,269.241L783.225,269.241z"/>
	</g>
	<g>
		<linearGradient id="SVGID_5_" gradientUnits="userSpaceOnUse" x1="776.2393" y1="81.3311" x2="394.2395" y2="931.3309">
			<stop  offset="0" style="stop-color:#E1B400"/>
			<stop  offset="1" style="stop-color:#E17614"/>
		</linearGradient>
		<path fill="url(#SVGID_5_)" d="M710.746,156.739c12.051-12.038,31.56-12.038,43.608,0.001l0,0
			c12.038,12.049,12.038,31.558-0.003,43.605l0,0c-12.047,12.039-31.555,12.039-43.603,0l0,0
			C698.709,188.298,698.709,168.789,710.746,156.739L710.746,156.739z M724.891,170.883c-4.22,4.234-4.222,11.085,0,15.321l0,0
			c4.236,4.222,11.086,4.22,15.32-0.001l0,0c4.222-4.235,4.222-11.084,0-15.32l0,0C735.975,166.662,729.127,166.662,724.891,170.883
			L724.891,170.883z"/>
	</g>
	<g>
		<linearGradient id="SVGID_6_" gradientUnits="userSpaceOnUse" x1="646.5381" y1="23.0479" x2="264.5398" y2="873.0444">
			<stop  offset="0" style="stop-color:#E1B400"/>
			<stop  offset="1" style="stop-color:#E17614"/>
		</linearGradient>
		<path fill="url(#SVGID_6_)" d="M349.522,590.717c-0.509-5.5,3.539-10.368,9.039-10.874l0,0c5.499-0.507,10.369,3.541,10.876,9.043
			l0,0c1.006,10.697,5.939,18.646,12.274,25.033l0,0c9.805,9.918,23.006,14.738,23.745,14.945l0,0l0.001-0.004
			c0.026,0.008,0.03,0.012,0.03,0.012l0,0l0,0c5.231,1.721,8.088,7.356,6.379,12.598l0,0c-1.711,5.248-7.354,8.118-12.605,6.406l0,0
			c-0.767-0.314-17.295-5.543-31.693-19.814l0,0c-0.053-0.052-0.104-0.104-0.157-0.155l0,0
			C358.791,619.284,350.978,606.845,349.522,590.717L349.522,590.717z"/>

		<animate id="animation11"
             attributeName="opacity"
             from="0" to="1" dur="0.5s"
             begin="0s;animation41.end" />

	</g>
	<g>
		<linearGradient id="SVGID_7_" gradientUnits="userSpaceOnUse" x1="623.6387" y1="12.751" x2="241.639" y2="862.7506">
			<stop  offset="0" style="stop-color:#E1B400"/>
			<stop  offset="1" style="stop-color:#E17614"/>
		</linearGradient>
		<path fill="url(#SVGID_7_)" d="M263.295,605.362c-1.216-5.385,2.166-10.741,7.551-11.957l0,0
			c5.388-1.217,10.742,2.165,11.957,7.553l0,0c7.291,32.181,22.473,55.326,39.371,72.259l0,0
			c31.031,31.15,68.467,40.574,69.465,40.767l0,0l0,0c0.003,0,0.005,0,0.006,0l0,0c0.006,0.003,0.011,0.003,0.013,0.003l0,0v0.002
			c5.368,1.261,8.703,6.632,7.45,12.005l0,0c-1.254,5.379-6.631,8.722-12.009,7.467l0,0c-0.957-0.28-42.783-9.941-79.067-46.101l0,0
			c-0.035-0.036-0.068-0.068-0.104-0.104l0,0C288.804,668.131,271.413,641.399,263.295,605.362L263.295,605.362z"/>
	
			<animate id="animation21"
             attributeName="opacity"
             from="0" to="1" dur="0.5s"
             begin="0s;animation11.end" />

	</g>
	<g>
		<linearGradient id="SVGID_8_" gradientUnits="userSpaceOnUse" x1="600.8672" y1="2.5137" x2="218.8657" y2="852.5173">
			<stop  offset="0" style="stop-color:#E1B400"/>
			<stop  offset="1" style="stop-color:#E17614"/>
		</linearGradient>
		<path fill="url(#SVGID_8_)" d="M171.817,620.237c-1.425-5.338,1.746-10.818,7.082-12.242l0,0
			c5.338-1.426,10.816,1.744,12.242,7.082l0,0c13.588,50.85,39.476,89.019,68.009,117.575l0,0
			c54.189,54.288,118.291,73.182,121.439,74.024l0,0c0.098,0.03,0.107,0.031,0.107,0.031l0,0c5.327,1.46,8.46,6.96,7.002,12.287l0,0
			c-1.459,5.326-6.96,8.459-12.286,7.004l0,0c-0.895-0.3-70.322-19.231-130.404-79.205l0,0c-0.026-0.026-0.052-0.052-0.078-0.078
			l0,0C214.389,716.174,186.375,674.816,171.817,620.237L171.817,620.237z"/>

		<animate id="animation31"
             attributeName="opacity"
             from="0" to="1" dur="0.5s"
             begin="0s;animation21.end" />

	</g>
	<g>
		<linearGradient id="SVGID_9_" gradientUnits="userSpaceOnUse" x1="574.6924" y1="-9.2515" x2="192.6905" y2="840.7531">
			<stop  offset="0" style="stop-color:#E1B400"/>
			<stop  offset="1" style="stop-color:#E17614"/>
		</linearGradient>
		<path fill="url(#SVGID_9_)" d="M72.877,633.872c-1.533-5.305,1.523-10.852,6.827-12.385l0,0
			c5.306-1.538,10.853,1.518,12.387,6.824l0,0c21.372,73.838,59.332,129.136,100.459,170.278l0,0
			c78.558,78.648,169.042,105.054,173.796,106.348l0,0c0.152,0.043,0.185,0.052,0.185,0.052l0,0l0.002,0.003
			c5.329,1.444,8.477,6.937,7.03,12.269l0,0c-1.447,5.327-6.938,8.477-12.269,7.03l0,0c-0.919-0.299-97.724-26.493-182.888-111.558
			l0,0C135.288,769.633,95.26,711.274,72.877,633.872L72.877,633.872z"/>


		<animate id="animation41"
             attributeName="opacity"
             from="0" to="1" dur="0.5s"
             begin="0s;animation31.end" />

	</g>
</g>
</svg>
